<svg xmlns="http://www.w3.org/2000/svg" width="556" height="555.999" viewBox="0 0 556 555.999">
  <path id="Exclusion_1" data-name="Exclusion 1" d="M278,642a280.05,280.05,0,0,1-56.027-5.648,276.478,276.478,0,0,1-99.406-41.83A278.811,278.811,0,0,1,21.847,472.21a276.609,276.609,0,0,1-16.2-52.184,280.712,280.712,0,0,1,0-112.053,276.478,276.478,0,0,1,41.83-99.406A278.811,278.811,0,0,1,169.79,107.847a276.6,276.6,0,0,1,52.184-16.2,280.713,280.713,0,0,1,112.053,0,276.48,276.48,0,0,1,99.406,41.83A278.809,278.809,0,0,1,534.153,255.79a276.6,276.6,0,0,1,16.2,52.183,280.708,280.708,0,0,1,0,112.053,276.48,276.48,0,0,1-41.83,99.406A278.811,278.811,0,0,1,386.21,620.153a276.6,276.6,0,0,1-52.183,16.2A280.05,280.05,0,0,1,278,642ZM177.039,189.9V540H387V476.035H255.9V395.957H370.4V331.992H255.9V254.111H378.943V189.9Z" transform="translate(0 -86)" fill="#212121"/>
</svg>
